<svg width="186" height="192" viewBox="0 0 186 192" fill="none" xmlns="http://www.w3.org/2000/svg">
<rect width="186" height="186" rx="30" fill="#C6A0DF"/>
<path d="M93.4086 96.4C99.5419 96.4 104.409 94.5333 108.009 90.8C111.609 87.0667 113.409 82.5333 113.409 77.2C113.409 71.7333 111.675 67.6667 108.209 65C104.875 62.2 100.542 60.8 95.2086 60.8H87.2086L83.8086 96.4H93.4086ZM106.009 122H81.2086L77.8086 157H38.8086L26.8086 35.8H116.009C130.009 35.8 141.342 39.4 150.009 46.6C158.809 53.6667 163.209 63.8667 163.209 77.2C163.209 85.3333 161.542 92.4 158.209 98.4C155.009 104.4 150.609 109.067 145.009 112.4C134.209 118.8 121.209 122 106.009 122Z" fill="#1E1E1E"/>
</svg>
