<svg width="295" height="283" viewBox="0 0 295 283" fill="none" xmlns="http://www.w3.org/2000/svg">
<path d="M10 237.544C6.37326 236.249 4.54144 235.998 3 239.544C3.4368 247.593 4.1402 252.168 7 260.544C11.3681 271.825 13.8723 276.503 18.5 280.044C25.2022 274.045 26.8241 269.664 27 260.544H49.5C55.2244 259.879 59.6387 258.996 63.5 257.495L46.5 227.13C43.459 228.925 40.7196 230.492 37 232.544L25 237.544H10Z" fill="black"/>
<path d="M268 239.544L252 223.544L248.5 217.544L226.5 233.633L228.5 237.544L245 264.544C249.56 270.131 252.739 272.13 259.5 273.544L286 253.044L292.5 243.044C293.05 240.905 292.591 240.047 289.5 239.544H268Z" fill="black"/>
<path d="M155 25.0438C148.729 25.2104 147.043 27.1419 146 32.5438C147.114 39.3558 149.452 40.537 155 40.5438C160.663 40.4209 163.215 39.4778 164 32.5438C163.385 26.0104 160.771 25.1643 155 25.0438Z" fill="black"/>
<path d="M146 49.5438L145.5 56.0438M146 49.5438C142.514 49.1298 139.814 48.6292 137.5 47.5932M146 49.5438H158.5M137.5 98.5438L131.5 108.044L105 134.544C104.4 139.472 105.265 141.28 110.5 141.544H120C128.357 139.254 132.14 135.753 138.5 128.544C135.469 133.082 133.958 135.56 132.5 139.544C129.467 144.628 129.646 146.781 131.5 150.044C134.619 152.616 136.119 152.365 138.5 150.044C147.398 141.528 149.467 137.481 150 131.044C149.705 136.883 149.689 140.025 152 143.544C154.055 146.273 155.25 147.304 157.5 148.044C160.466 146.895 163 142.544 163 142.544C163 142.544 172.81 119.898 172.5 114.044M46.5 227.13C43.459 228.925 40.7196 230.492 37 232.544L25 237.544H10C6.37326 236.249 4.54144 235.998 3 239.544C3.4368 247.593 4.1402 252.168 7 260.544C11.3681 271.825 13.8723 276.503 18.5 280.044C25.2022 274.045 26.8241 269.664 27 260.544H49.5C55.2244 259.879 59.6387 258.996 63.5 257.495M46.5 227.13C48.3045 226.064 50.2152 224.919 52.5 223.544C59.6037 216.714 64.1066 213.245 68.5 204.544C72.1528 198.913 73.7539 195.741 75.5 190.044V168.044C74.8778 155.654 77.5 136.044 77.5 136.044C77.5 136.044 79.0345 110.691 82 95.0438C84.2511 78.6549 86.8601 69.5756 93.5 53.5438C99.941 39.5949 104.695 32.7215 114.5 21.5438C121.164 14.9196 125.229 11.7122 133.5 7.54381C140.172 4.29014 144.025 3.37003 151 2.54381C161.035 1.71508 166.435 1.93033 176 2.54381C189.386 6.22183 195.488 10.1423 203 21.5438C209.171 31.4427 211.956 36.7435 216.5 46.0438H254.5C259.536 46.9802 261.793 48.1592 263 53.5438C263.277 58.1243 261.95 60.0814 257.5 62.5438C252.911 64.8034 250.212 65.9349 245 67.5438L224 70.0438H254.5C260.03 70.3703 261.014 71.175 263 72.5438C266.008 75.5301 266.485 76.9107 266 79.0438C263.036 83.0327 260.542 84.5939 254.5 86.0438C250.859 88.0508 248.788 88.852 245 89.5438H226.5L228.5 136.044V190.044L245 211.544L248.5 217.544M46.5 227.13L63.5 257.495M63.5 257.495C68.548 255.532 72.6508 252.513 77.5 247.544C89.3397 236.851 94.3292 230.102 101 217.044L112 190.044L128.5 193.544L153 196.044H182L206 193.544L226.5 233.633M226.5 233.633L228.5 237.544L245 264.544C249.56 270.131 252.739 272.13 259.5 273.544L286 253.044L292.5 243.044C293.05 240.905 292.591 240.047 289.5 239.544H268L252 223.544L248.5 217.544M226.5 233.633L248.5 217.544M131.5 42.665C131.002 42.0244 130.504 41.3199 130 40.5438V29.5438C133.683 22.9182 137.24 20.9104 146 20.0438H168.5C177.392 21.7381 180.922 24.2356 185.5 30.5438V40.5438C184.338 41.8977 183.231 43.0441 182 44.0383M131.5 42.665L128 47.5438M131.5 42.665C133.379 45.0827 135.258 46.5893 137.5 47.5932M137.5 47.5932L135 52.5438M158.5 49.5438H167.5C168.351 49.3786 169.155 49.2124 169.917 49.0438M158.5 49.5438V57.5438M169.917 49.0438V56.5438M169.917 49.0438C172.815 48.4025 175.1 47.7275 177 46.9476M177 46.9476L178.5 54.0438M177 46.9476C179.008 46.123 180.585 45.1813 182 44.0383M182 44.0383L185 50.5438M151 12.0438H163.5M155 25.0438C148.729 25.2104 147.043 27.1419 146 32.5438C147.114 39.3558 149.452 40.537 155 40.5438C160.663 40.4209 163.215 39.4778 164 32.5438C163.385 26.0104 160.771 25.1643 155 25.0438Z" stroke="black" stroke-width="4"/>
</svg>
