<svg width="213" height="222" viewBox="0 0 213 222" fill="none" xmlns="http://www.w3.org/2000/svg">
<path d="M8.0259 185.831C5.42195 184.82 4.10673 184.624 3 187.392C3.31362 193.674 3.81865 197.244 5.87194 203.781C9.00817 212.586 10.8062 216.237 14.1288 219C18.9409 214.318 20.1053 210.899 20.2317 203.781H36.3863C40.4964 203.263 43.6658 202.573 46.4381 201.402L34.2324 177.703C32.049 179.104 30.0822 180.328 27.4115 181.929L18.7957 185.831H8.0259Z" fill="black"/>
<path d="M193.266 187.392L181.778 174.904L179.265 170.222L163.47 182.778L164.906 185.831L176.753 206.903C180.026 211.263 182.309 212.824 187.163 213.927L206.19 197.928L210.857 190.123C211.251 188.454 210.922 187.784 208.703 187.392H193.266Z" fill="black"/>
<path d="M112.134 19.9846C107.632 20.1147 106.421 21.6221 105.672 25.838C106.472 31.1544 108.15 32.0763 112.134 32.0816C116.2 31.9857 118.032 31.2497 118.596 25.838C118.154 20.7389 116.277 20.0787 112.134 19.9846Z" fill="black"/>
<path fill-rule="evenodd" clip-rule="evenodd" d="M50.0281 160.076C46.8737 166.866 43.6407 169.574 38.5403 174.904C36.8999 175.978 35.528 176.872 34.2324 177.703L46.4381 201.402C50.0626 199.87 53.0083 197.514 56.4899 193.635C64.9907 185.29 68.573 180.022 73.3626 169.831L81.2604 148.759L93.1072 151.491L110.698 153.442H131.519L148.751 151.491L163.47 182.778L179.265 170.222L176.753 165.539L164.906 148.759V106.615L163.47 70.3238H176.753C179.472 69.7839 180.959 69.1586 183.573 67.5922C187.912 66.4606 189.702 65.2422 191.83 62.129C192.178 60.4643 191.836 59.3868 189.676 57.0561C188.25 55.9878 187.544 55.3598 183.573 55.105H161.675L176.753 53.1538C180.494 51.8981 182.432 51.0151 185.727 49.2516C188.923 47.3298 189.875 45.8024 189.676 42.2275C188.81 38.0251 187.189 37.1049 183.573 36.3741H156.29C153.027 29.1157 151.028 24.9786 146.597 17.253C141.204 8.35466 136.822 5.29494 127.212 2.42442C120.344 1.94563 116.467 1.77763 109.262 2.42442C104.254 3.06925 101.487 3.78735 96.6971 6.32668C90.7588 9.57993 87.84 12.0831 83.0554 17.253C76.0156 25.9767 72.6022 31.341 67.9777 42.2275C63.2104 54.7396 61.3371 61.8255 59.7209 74.6163C57.5917 86.8284 56.4899 106.615 56.4899 106.615C56.4899 106.615 54.6072 121.92 55.054 131.589V148.759C53.8003 153.206 52.6507 155.682 50.0281 160.076ZM94.1842 23.4966C96.8284 18.3257 99.3826 16.7587 105.672 16.0823H121.827C128.211 17.4047 130.746 19.3538 134.032 24.2771V32.0816C133.198 33.1383 132.403 34.033 131.519 34.8089C130.504 35.7009 129.371 36.4359 127.929 37.0794C126.566 37.6881 124.925 38.215 122.844 38.7155C122.297 38.847 121.719 38.9768 121.109 39.1057H114.647H105.672C103.169 38.7826 101.23 38.3919 99.5691 37.5833C97.9593 36.7999 96.6101 35.624 95.2612 33.7371C94.9038 33.2372 94.5464 32.6873 94.1842 32.0816V23.4966Z" fill="#DDC6EC"/>
<path d="M105.672 39.1057L105.313 44.1786M105.672 39.1057C103.169 38.7826 101.23 38.3919 99.5691 37.5833M105.672 39.1057H114.647M99.5691 77.3479L95.2612 84.7622L76.2345 105.444C75.8037 109.29 76.4245 110.701 80.1835 110.907H87.0043C93.0046 109.12 95.7207 106.388 100.287 100.761C98.1109 104.303 97.026 106.237 95.9791 109.346C93.8017 113.314 93.9298 114.994 95.2612 117.541C97.5007 119.549 98.5779 119.353 100.287 117.541C106.676 110.895 108.161 107.737 108.544 102.713C108.332 107.27 108.321 109.722 109.98 112.468C111.455 114.599 112.313 115.403 113.929 115.98C116.058 115.083 117.878 111.688 117.878 111.688C117.878 111.688 124.921 94.0135 124.699 89.4449M34.2324 177.703C32.049 179.104 30.0822 180.328 27.4115 181.929L18.7957 185.831H8.0259C5.42195 184.82 4.10673 184.624 3 187.392C3.31362 193.674 3.81865 197.244 5.87194 203.781C9.00817 212.586 10.8062 216.237 14.1288 219C18.9409 214.318 20.1053 210.899 20.2317 203.781H36.3863C40.4964 203.263 43.6658 202.573 46.4381 201.402M34.2324 177.703C35.528 176.872 36.8999 175.978 38.5403 174.904C43.6407 169.574 46.8737 166.866 50.0281 160.076C52.6507 155.682 53.8003 153.206 55.054 148.759V131.589C54.6072 121.92 56.4899 106.615 56.4899 106.615C56.4899 106.615 57.5917 86.8284 59.7209 74.6163C61.3371 61.8255 63.2104 54.7396 67.9777 42.2275C72.6022 31.341 76.0156 25.9767 83.0554 17.253C87.84 12.0831 90.7588 9.57993 96.6971 6.32668C101.487 3.78735 104.254 3.06925 109.262 2.42442C116.467 1.77763 120.344 1.94563 127.212 2.42442C136.822 5.29494 141.204 8.35466 146.597 17.253C151.028 24.9786 153.027 29.1157 156.29 36.3741H183.573C187.189 37.1049 188.81 38.0251 189.676 42.2275C189.875 45.8024 188.923 47.3298 185.727 49.2516C182.432 51.0151 180.494 51.8981 176.753 53.1538L161.675 55.105H183.573C187.544 55.3598 188.25 55.9878 189.676 57.0561C191.836 59.3868 192.178 60.4643 191.83 62.129C189.702 65.2422 187.912 66.4606 183.573 67.5922C180.959 69.1586 179.472 69.7839 176.753 70.3238H163.47L164.906 106.615V148.759L176.753 165.539L179.265 170.222M34.2324 177.703L46.4381 201.402M46.4381 201.402C50.0626 199.87 53.0083 197.514 56.4899 193.635C64.9907 185.29 68.573 180.022 73.3626 169.831L81.2604 148.759L93.1072 151.491L110.698 153.442H131.519L148.751 151.491L163.47 182.778M163.47 182.778L164.906 185.831L176.753 206.903C180.026 211.263 182.309 212.824 187.163 213.927L206.19 197.928L210.857 190.123C211.251 188.454 210.922 187.784 208.703 187.392H193.266L181.778 174.904L179.265 170.222M163.47 182.778L179.265 170.222M95.2612 33.7371C94.9038 33.2372 94.5464 32.6873 94.1842 32.0816V23.4966C96.8284 18.3257 99.3826 16.7587 105.672 16.0823H121.827C128.211 17.4047 130.746 19.3538 134.032 24.2771V32.0816C133.198 33.1383 132.403 34.033 131.519 34.8089M95.2612 33.7371L92.7482 37.5448M95.2612 33.7371C96.6101 35.624 97.9593 36.7999 99.5691 37.5833M99.5691 37.5833L97.7741 41.447M114.647 39.1057H121.109C121.719 38.9768 122.297 38.847 122.844 38.7155M114.647 39.1057V45.3493M122.844 38.7155V44.5688M122.844 38.7155C124.925 38.215 126.566 37.6881 127.929 37.0794M127.929 37.0794L129.006 42.6177M127.929 37.0794C129.371 36.4359 130.504 35.7009 131.519 34.8089M131.519 34.8089L133.673 39.8861M109.262 9.8387C112.767 8.3184 114.732 8.47507 118.237 9.8387M112.134 19.9846C107.632 20.1147 106.421 21.6221 105.672 25.838C106.472 31.1544 108.15 32.0763 112.134 32.0816C116.2 31.9857 118.032 31.2497 118.596 25.838C118.154 20.7389 116.277 20.0787 112.134 19.9846Z" stroke="black" stroke-width="4"/>
</svg>
