<svg width="262" height="87" viewBox="0 0 262 87" fill="none" xmlns="http://www.w3.org/2000/svg">
<path d="M39.912 43.608C41.8747 43.608 43.432 43.0107 44.584 41.816C45.736 40.6213 46.312 39.1707 46.312 37.464C46.312 35.7147 45.7573 34.4133 44.648 33.56C43.5813 32.664 42.1947 32.216 40.488 32.216H37.928L36.84 43.608H39.912ZM43.944 51.8H36.008L34.92 63H22.44L18.6 24.216H47.144C51.624 24.216 55.2507 25.368 58.024 27.672C60.84 29.9333 62.248 33.1973 62.248 37.464C62.248 40.0667 61.7147 42.328 60.648 44.248C59.624 46.168 58.216 47.6613 56.424 48.728C52.968 50.776 48.808 51.8 43.944 51.8ZM79.8845 21.464L78.1565 63H66.3805L64.6525 21.464H79.8845ZM94.829 63.64C91.5437 63.64 88.8343 62.68 86.701 60.76C84.6103 58.84 83.565 56.1307 83.565 52.632C83.565 49.0907 84.7597 46.5307 87.149 44.952C89.5383 43.3307 92.4183 42.52 95.789 42.52C99.1597 42.52 102.082 43.0533 104.557 44.12C104.002 40.5787 101.762 38.808 97.837 38.808C96.045 38.808 93.8263 39.1707 91.181 39.896L89.581 34.136C93.421 32.5573 97.325 31.768 101.293 31.768C112.728 31.768 118.445 36.632 118.445 46.36C118.445 49.688 118.061 54.296 117.293 60.184L116.973 63H106.413L106.029 59.48C103.128 62.2533 99.3943 63.64 94.829 63.64ZM100.589 55.704C102.509 55.704 104.152 55.1707 105.517 54.104L105.133 49.88C104.066 49.1547 102.872 48.792 101.549 48.792C100.269 48.792 99.2023 49.112 98.349 49.752C97.5383 50.392 97.133 51.1813 97.133 52.12C97.133 53.0587 97.453 53.8907 98.093 54.616C98.733 55.3413 99.565 55.704 100.589 55.704ZM146.622 31.768C149.609 31.768 152.169 33.0267 154.302 35.544C156.478 38.0613 157.566 41.3467 157.566 45.4C157.566 49.4107 157.075 55.2773 156.094 63H144.894L143.614 48.664C143.187 44.0987 141.95 41.816 139.902 41.816C137.47 41.816 136.169 44.12 135.998 48.728L135.55 63H123.774L122.43 32.664H136.894L136.638 38.104C136.851 37.6773 137.342 37.016 138.11 36.12C138.878 35.224 139.625 34.4987 140.35 33.944C142.227 32.4933 144.318 31.768 146.622 31.768ZM176.832 33.56L177.92 33.176L175.744 63H163.648L161.6 33.176C164.032 34.1573 166.613 34.648 169.344 34.648C172.117 34.648 174.613 34.2853 176.832 33.56ZM169.728 31.832C167.595 31.832 165.803 31.192 164.352 29.912C162.901 28.632 162.176 26.968 162.176 24.92C162.176 22.8293 162.88 21.1653 164.288 19.928C165.739 18.648 167.531 18.008 169.664 18.008C171.84 18.008 173.653 18.648 175.104 19.928C176.555 21.208 177.28 22.872 177.28 24.92C177.28 26.968 176.555 28.632 175.104 29.912C173.653 31.192 171.861 31.832 169.728 31.832ZM185.158 32.664C185.158 28.7387 186.075 25.752 187.91 23.704C189.787 21.6133 192.944 20.568 197.382 20.568C199.344 20.568 201.222 20.8453 203.014 21.4L203.718 27.608C203.078 27.4373 202.438 27.352 201.798 27.352C199.707 27.352 198.662 28.8453 198.662 31.832V32.664H202.566L203.334 40.984H199.046L198.086 63H186.31L185.35 40.984H181.318L182.086 32.664H185.158ZM229.273 55.896V55.384C229.145 56.1093 228.804 56.92 228.249 57.816C227.737 58.6693 227.161 59.3947 226.521 59.992C225.881 60.5893 224.964 61.1227 223.769 61.592C222.617 62.0613 221.081 62.296 219.161 62.296C217.241 62.296 215.428 61.8693 213.721 61.016C212.014 60.12 210.692 58.904 209.753 57.368C207.961 54.5093 207.065 51.3733 207.065 47.96C207.065 44.504 207.556 39.4053 208.537 32.664H220.953V46.488C220.953 51.1813 222.34 53.528 225.113 53.528C226.35 53.528 227.268 52.9733 227.865 51.864C228.462 50.7547 228.761 49.3467 228.761 47.64C228.761 47.4267 228.761 47.192 228.761 46.936L228.185 32.664H242.585L241.689 52.312C241.561 55.0853 241.348 57.4533 241.049 59.416C240.793 61.3787 240.281 63.384 239.513 65.432C238.788 67.5227 237.828 69.208 236.633 70.488C233.86 73.3893 229.742 74.84 224.281 74.84C220.441 74.84 216.836 73.6453 213.465 71.256L212.889 70.872L215.577 65.368C217.625 66.3067 219.545 66.776 221.337 66.776C223.812 66.776 225.753 65.816 227.161 63.896C228.569 62.0187 229.273 59.352 229.273 55.896Z" fill="#666666" fill-opacity="0.5"/>
</svg>
